<?xml version="1.0"?>
<svg xmlns="http://www.w3.org/2000/svg" viewBox="0 0 1024 1024" width="1024" height="1024">
  <defs>
    <linearGradient id="bg" x1="0" y1="0" x2="1" y2="1">
      <stop offset="0%" stop-color="#16161A"></stop>
      <stop offset="100%" stop-color="#050507"></stop>
    </linearGradient>
    <radialGradient id="glow" cx="0.85" cy="0.1" r="0.9">
      <stop offset="0%" stop-color="rgba(140,196,166,0.22)"></stop>
      <stop offset="60%" stop-color="rgba(140,196,166,0)"></stop>
    </radialGradient>
    <clipPath id="sq">
      <path d="M 232 0 H 792 C 920.06 0, 1024 103.94, 1024 232 V 792 C 1024 920.06, 920.06 1024, 792 1024 H 232 C 103.94 1024, 0 920.06, 0 792 V 232 C 0 103.94, 103.94 0, 232 0 Z"></path>
    </clipPath>
  </defs>
  <g clip-path="url(#sq)">
    
    <rect width="1024" height="1024" fill="url(#bg)"></rect>
    <rect width="1024" height="1024" fill="url(#glow)"></rect>

    
    <circle cx="512" cy="512" r="320" fill="none" stroke="rgba(255,255,255,0.06)" stroke-width="80"></circle>

    
    <circle cx="512" cy="512" r="320" fill="none" stroke="#8CC4A6" stroke-width="80" stroke-linecap="round" stroke-dasharray="1568 2011" transform="rotate(-90 512 512)"></circle>

    
    <g fill="#8CC4A6">
      
      <rect x="408" y="496" width="208" height="32" rx="12"></rect>
      
      <rect x="352" y="460" width="56" height="104" rx="12"></rect>
      <rect x="616" y="460" width="56" height="104" rx="12"></rect>
      
      <rect x="312" y="476" width="32" height="72" rx="10"></rect>
      <rect x="680" y="476" width="32" height="72" rx="10"></rect>
    </g>
  </g>
</svg>