<svg xmlns="http://www.w3.org/2000/svg" viewBox="0 0 1024 1024" width="1024" height="1024">
  <defs>
    <linearGradient id="bg" x1="0" y1="0" x2="1" y2="1">
      <stop offset="0%" stop-color="#0f1a16"/>
      <stop offset="100%" stop-color="#070c0a"/>
    </linearGradient>
    <radialGradient id="glow" cx="0.85" cy="0.1" r="0.9">
      <stop offset="0%" stop-color="rgba(77,207,160,0.28)"/>
      <stop offset="60%" stop-color="rgba(77,207,160,0)"/>
    </radialGradient>
    <clipPath id="sq">
      <path d="M 232 0 H 792 C 920.06 0, 1024 103.94, 1024 232 V 792 C 1024 920.06, 920.06 1024, 792 1024 H 232 C 103.94 1024, 0 920.06, 0 792 V 232 C 0 103.94, 103.94 0, 232 0 Z"/>
    </clipPath>
  </defs>
  <rect width="1024" height="1024" fill="url(#bg)"/>
  <rect width="1024" height="1024" fill="url(#glow)"/>
  <g clip-path="url(#sq)">
    <circle cx="512" cy="512" r="320" fill="none" stroke="rgba(77,207,160,0.1)" stroke-width="80"/>
    <circle cx="512" cy="512" r="320" fill="none" stroke="#4dcfa0" stroke-width="80" stroke-linecap="round" stroke-dasharray="1568 2011" transform="rotate(-90 512 512)"/>
    <g fill="#4dcfa0">
      <rect x="408" y="496" width="208" height="32" rx="12"/>
      <rect x="352" y="460" width="56" height="104" rx="12"/>
      <rect x="616" y="460" width="56" height="104" rx="12"/>
      <rect x="312" y="476" width="32" height="72" rx="10"/>
      <rect x="680" y="476" width="32" height="72" rx="10"/>
    </g>
  </g>
</svg>
